<svg width="300" height="300" xmlns="http://www.w3.org/2000/svg" preserveAspectRatio="xMidYMid meet">

 <g>
  <title>background</title>
  <rect fill="none" id="canvas_background" height="402" width="582" y="-1" x="-1"/>
 </g>
 <g>
  <title>Layer 1</title>
  <rect id="svg_3" height="124.333316" width="158.999978" y="96.33332" x="67.666678" stroke-width="1.5" stroke="#000" fill="#fff"/>
  <g id="svg_1" fill="#000000" transform="translate(0,300) scale(0.10000000149011612,-0.10000000149011612) ">
   <path id="svg_2" d="m1335,2868c-584,-66 -1067,-510 -1185,-1088c-56,-276 -27,-556 84,-815c202,-470 625,-776 1144,-826c264,-26 567,40 797,173c540,314 802,933 650,1534c-168,661 -807,1100 -1490,1022zm526,-1044c126,-24 196,-26 242,-9c31,12 20,-38 -15,-72c-69,-66 -116,-68 -286,-10c-109,36 -139,42 -208,42c-71,-1 -89,-5 -147,-33c-78,-39 -174,-129 -205,-193c-30,-62 -29,-123 3,-154c13,-14 34,-25 46,-25c42,0 104,39 142,88c50,67 69,115 76,196c4,40 11,71 18,73c24,8 57,-78 56,-147c-1,-148 -111,-260 -255,-260c-98,0 -158,51 -158,134c0,125 173,305 346,361c124,40 179,41 345,9zm9,-153c0,-11 -5,-23 -10,-26c-23,-14 -41,-71 -69,-208c-34,-173 -70,-254 -155,-344c-108,-116 -262,-171 -446,-161c-95,6 -160,29 -199,72c-32,34 -41,124 -17,161c60,92 226,85 226,-9c0,-42 -28,-68 -88,-81c-119,-26 -7,-117 121,-100c150,21 226,98 313,316c58,144 72,170 127,245c44,59 156,154 183,154c8,0 14,-9 14,-19z"/>
  </g>
  <rect id="svg_4" height="0.333333" width="0" y="260.333298" x="280.999982" stroke-width="1.5" stroke="#000" fill="#fff"/>
 </g>
</svg>